<svg xmlns="http://www.w3.org/2000/svg" viewBox="0 0 119 49">
  <defs>
    <style>
      .a {
        fill: #0a0a0a;
        fill-rule: evenodd;
      }
    </style>
  </defs>
  <title>logo-black</title>
  <path class="a" d="M51,28.4V11h8V35.4a16.5,16.5,0,0,1-1,6.2,11.5,11.5,0,0,1-2.8,4.2A11,11,0,0,1,51,48.2a17.2,17.2,0,0,1-5.2.8,21.2,21.2,0,0,1-5.7-.7,16.3,16.3,0,0,1-4.4-2l-.5-.3,2.1-6.6.8.5a11.4,11.4,0,0,0,3.4,1.5,14.8,14.8,0,0,0,3.5.5,7,7,0,0,0,4.6-1.4c1-.8,1.5-2.5,1.5-4.8v-.4a.1.1,0,0,1-.1.1,8.6,8.6,0,0,1-1.8,1.4l-2.2,1a10.9,10.9,0,0,1-2.6.4,8.9,8.9,0,0,1-6.9-2.7c-1.7-1.8-2.5-4.4-2.5-7.8V11h8V27.5a4.5,4.5,0,0,0,.8,3,2.9,2.9,0,0,0,2.4.8,5,5,0,0,0,2.7-.8A10.4,10.4,0,0,0,51,28.4ZM85.1,11.2a9.8,9.8,0,0,1,3.3,3.1,13.5,13.5,0,0,1,2,4.4,21.6,21.6,0,0,1,.6,5.1,19.7,19.7,0,0,1-.9,6.2,15.4,15.4,0,0,1-2.4,4.6,10.3,10.3,0,0,1-3.5,2.8,9.4,9.4,0,0,1-4.3,1,8.8,8.8,0,0,1-5.1-1.3l-1.7-1.5V48H65V10.6h7.2l.6,2.6.5-.4a13.3,13.3,0,0,1,1.9-1.4l2.4-1a8.6,8.6,0,0,1,2.8-.4A8.9,8.9,0,0,1,85.1,11.2Zm-2.5,16a12.8,12.8,0,0,0,.4-3.6,7.7,7.7,0,0,0-1.4-4.9A3.7,3.7,0,0,0,78.3,17a5.6,5.6,0,0,0-3,.8,15,15,0,0,0-2.3,2v4.9a7.3,7.3,0,0,0,1.4,4.7A4.2,4.2,0,0,0,77.9,31a4.1,4.1,0,0,0,1.9-.4,3.1,3.1,0,0,0,1.6-1.2A5.7,5.7,0,0,0,82.6,27.2ZM96,39V11h9V39Zm.3-37.5a5.3,5.3,0,0,1,7.4,0A5.1,5.1,0,0,1,105,5a5.1,5.1,0,0,1-1.3,3.5,5.3,5.3,0,0,1-7.4,0A5.1,5.1,0,0,1,95,5,5.1,5.1,0,0,1,96.3,1.5ZM114,28a4.7,4.7,0,0,1,3.7,1.5,5.4,5.4,0,0,1,0,7,5.3,5.3,0,0,1-7.4,0,5.4,5.4,0,0,1,0-7A4.7,4.7,0,0,1,114,28ZM21.6,1H30V39H21.6V23.4H8.4V39H0V1H8.4V15.9H21.6Z"/>
</svg>
